<svg width="49" height="48" viewBox="0 0 49 48" fill="none" xmlns="http://www.w3.org/2000/svg">
<path d="M10.0667 10.6667C9.90844 10.6661 9.75358 10.621 9.61984 10.5365C9.4861 10.4519 9.37889 10.3314 9.31051 10.1888C9.24213 10.0461 9.21535 9.88702 9.23324 9.72982C9.25113 9.57263 9.31297 9.42365 9.41166 9.29999C10.7392 7.64661 12.4209 6.3123 14.3328 5.39548C16.2447 4.47865 18.338 4.00269 20.4583 4.00269C22.5787 4.00269 24.672 4.47865 26.5839 5.39548C28.4958 6.3123 30.1775 7.64661 31.505 9.29999C31.6037 9.42365 31.6655 9.57263 31.6834 9.72982C31.7013 9.88702 31.6745 10.0461 31.6061 10.1888C31.5378 10.3314 31.4305 10.4519 31.2968 10.5365C31.1631 10.621 31.0082 10.6661 30.85 10.6667H10.0667Z" fill="url(#paint0_linear_33_20192)"/>
<path d="M11.2916 28.5833C11.084 28.5833 10.8796 28.5317 10.6969 28.4331C10.5142 28.3344 10.3589 28.1919 10.245 28.0183C10.1311 27.8447 10.0622 27.6455 10.0444 27.4387C10.0267 27.2318 10.0606 27.0238 10.1433 26.8333L11.6433 23.325C11.6706 23.2617 11.6818 23.1925 11.6758 23.1239C11.6698 23.0552 11.6469 22.989 11.6091 22.9314C11.5712 22.8737 11.5197 22.8264 11.4591 22.7935C11.3984 22.7607 11.3306 22.7435 11.2616 22.7433H10.4583C10.1268 22.7433 9.80885 22.6116 9.57443 22.3772C9.34001 22.1428 9.20831 21.8248 9.20831 21.4933C9.20831 21.1618 9.34001 20.8438 9.57443 20.6094C9.80885 20.375 10.1268 20.2433 10.4583 20.2433H13.7916C14.0003 20.2424 14.2059 20.2937 14.3896 20.3925C14.5733 20.4914 14.7294 20.6347 14.8436 20.8093C14.9577 20.984 15.0264 21.1844 15.0432 21.3924C15.06 21.6004 15.0246 21.8092 14.94 22L12.44 27.8333C12.3427 28.0568 12.1821 28.2469 11.978 28.3801C11.774 28.5134 11.5354 28.584 11.2916 28.5833Z" fill="url(#paint1_linear_33_20192)"/>
<path d="M19.625 28.5833C19.4174 28.5833 19.213 28.5317 19.0303 28.4331C18.8476 28.3344 18.6923 28.1919 18.5784 28.0183C18.4645 27.8447 18.3955 27.6455 18.3778 27.4386C18.36 27.2318 18.394 27.0237 18.4767 26.8333L19.9767 23.325C20.004 23.2616 20.0152 23.1925 20.0092 23.1238C20.0032 23.0552 19.9803 22.989 19.9425 22.9314C19.9046 22.8737 19.8531 22.8264 19.7924 22.7935C19.7318 22.7607 19.664 22.7434 19.595 22.7433H18.7917C18.4602 22.7433 18.1422 22.6116 17.9078 22.3772C17.6734 22.1427 17.5417 21.8248 17.5417 21.4933C17.5417 21.1618 17.6734 20.8438 17.9078 20.6094C18.1422 20.375 18.4602 20.2433 18.7917 20.2433H22.125C22.3319 20.2433 22.5356 20.2947 22.7178 20.3929C22.8999 20.491 23.0549 20.6329 23.1687 20.8057C23.2825 20.9785 23.3517 21.1768 23.3699 21.383C23.3882 21.5891 23.355 21.7965 23.2734 21.9866L20.7734 27.82C20.6781 28.0459 20.5184 28.2388 20.3141 28.3746C20.1099 28.5103 19.8702 28.5829 19.625 28.5833Z" fill="url(#paint2_linear_33_20192)"/>
<path d="M27.9583 28.5833C27.7516 28.5829 27.5481 28.5312 27.3662 28.4329C27.1843 28.3347 27.0295 28.1929 26.9158 28.0202C26.802 27.8475 26.7328 27.6494 26.7144 27.4434C26.6959 27.2375 26.7288 27.0302 26.81 26.84L28.31 23.3317C28.3373 23.2684 28.3485 23.1992 28.3425 23.1306C28.3365 23.0619 28.3136 22.9957 28.2758 22.9381C28.2379 22.8804 28.1864 22.8331 28.1258 22.8002C28.0651 22.7674 27.9973 22.7502 27.9283 22.75H27.125C26.7935 22.75 26.4755 22.6183 26.2411 22.3839C26.0067 22.1495 25.875 21.8315 25.875 21.5C25.875 21.1685 26.0067 20.8505 26.2411 20.6161C26.4755 20.3817 26.7935 20.25 27.125 20.25H30.4583C30.6653 20.25 30.8689 20.3014 31.0511 20.3996C31.2333 20.4977 31.3882 20.6396 31.502 20.8124C31.6158 20.9852 31.685 21.1836 31.7033 21.3897C31.7215 21.5958 31.6883 21.8032 31.6067 21.9933L29.1067 27.8267C29.0104 28.0514 28.8502 28.2429 28.6461 28.3774C28.4419 28.5119 28.2028 28.5835 27.9583 28.5833Z" fill="url(#paint3_linear_33_20192)"/>
<path d="M41.2917 16.5C40.577 16.5005 39.8815 16.7307 39.3076 17.1567C38.7337 17.5826 38.312 18.1817 38.1045 18.8656C37.897 19.5494 37.9148 20.2819 38.1553 20.9549C38.3957 21.6279 38.8461 22.2057 39.44 22.6033C39.497 22.6414 39.5437 22.693 39.5759 22.7534C39.6082 22.8139 39.6251 22.8814 39.625 22.95V31.9166C39.6252 32.7183 39.3366 33.4931 38.8119 34.0992C38.2872 34.7053 37.5617 35.102 36.7683 35.2166C36.7092 35.2247 36.649 35.22 36.5918 35.203C36.5345 35.1859 36.4816 35.1569 36.4365 35.1178C36.3914 35.0787 36.3551 35.0304 36.3302 34.9762C36.3052 34.9219 36.2921 34.863 36.2917 34.8033V15.6666C36.2917 15.0036 36.0283 14.3677 35.5594 13.8989C35.0906 13.43 34.4547 13.1666 33.7917 13.1666H7.125C6.46196 13.1666 5.82607 13.43 5.35723 13.8989C4.88839 14.3677 4.625 15.0036 4.625 15.6666V41.5C4.625 42.163 4.88839 42.7989 5.35723 43.2677C5.82607 43.7366 6.46196 44 7.125 44H33.7917C34.4547 44 35.0906 43.7366 35.5594 43.2677C36.0283 42.7989 36.2917 42.163 36.2917 41.5V38.9883C36.2915 38.882 36.3319 38.7796 36.4047 38.7022C36.4775 38.6247 36.5772 38.578 36.6833 38.5716C38.3807 38.4717 39.9757 37.7271 41.1422 36.49C42.3086 35.2529 42.9583 33.6169 42.9583 31.9166V22.95C42.9583 22.8814 42.9751 22.8139 43.0074 22.7534C43.0397 22.693 43.0864 22.6414 43.1433 22.6033C43.7372 22.2057 44.1876 21.6279 44.4281 20.9549C44.6685 20.2819 44.6863 19.5494 44.4789 18.8656C44.2714 18.1817 43.8496 17.5826 43.2757 17.1567C42.7019 16.7307 42.0063 16.5005 41.2917 16.5ZM17.125 39.4166H9.625C9.29348 39.4166 8.97554 39.2849 8.74112 39.0505C8.5067 38.8161 8.375 38.4981 8.375 38.1666C8.375 37.8351 8.5067 37.5172 8.74112 37.2827C8.97554 37.0483 9.29348 36.9166 9.625 36.9166H17.125C17.4565 36.9166 17.7745 37.0483 18.0089 37.2827C18.2433 37.5172 18.375 37.8351 18.375 38.1666C18.375 38.4981 18.2433 38.8161 18.0089 39.0505C17.7745 39.2849 17.4565 39.4166 17.125 39.4166ZM33.7917 29C33.7917 29.442 33.6161 29.8659 33.3035 30.1785C32.991 30.491 32.567 30.6666 32.125 30.6666H8.79167C8.34964 30.6666 7.92572 30.491 7.61316 30.1785C7.30059 29.8659 7.125 29.442 7.125 29V19.8333C7.125 19.3913 7.30059 18.9673 7.61316 18.6548C7.92572 18.3422 8.34964 18.1666 8.79167 18.1666H32.125C32.567 18.1666 32.991 18.3422 33.3035 18.6548C33.6161 18.9673 33.7917 19.3913 33.7917 19.8333V29Z" fill="url(#paint4_linear_33_20192)"/>
<defs>
<linearGradient id="paint0_linear_33_20192" x1="20.4583" y1="10.6667" x2="20.4583" y2="4.00266" gradientUnits="userSpaceOnUse">
<stop stop-color="#9F2FFF"/>
<stop offset="1" stop-color="#0BB1D3"/>
</linearGradient>
<linearGradient id="paint1_linear_33_20192" x1="12.1278" y1="28.5833" x2="12.1278" y2="20.2433" gradientUnits="userSpaceOnUse">
<stop stop-color="#9F2FFF"/>
<stop offset="1" stop-color="#0BB1D3"/>
</linearGradient>
<linearGradient id="paint2_linear_33_20192" x1="20.4583" y1="28.5833" x2="20.4583" y2="20.2433" gradientUnits="userSpaceOnUse">
<stop stop-color="#9F2FFF"/>
<stop offset="1" stop-color="#0BB1D3"/>
</linearGradient>
<linearGradient id="paint3_linear_33_20192" x1="28.7916" y1="28.5833" x2="28.7916" y2="20.25" gradientUnits="userSpaceOnUse">
<stop stop-color="#9F2FFF"/>
<stop offset="1" stop-color="#0BB1D3"/>
</linearGradient>
<linearGradient id="paint4_linear_33_20192" x1="24.6237" y1="44" x2="24.6237" y2="13.1665" gradientUnits="userSpaceOnUse">
<stop stop-color="#9F2FFF"/>
<stop offset="1" stop-color="#0BB1D3"/>
</linearGradient>
</defs>
</svg>
