<svg width="49" height="48" viewBox="0 0 49 48" fill="none" xmlns="http://www.w3.org/2000/svg">
<g clip-path="url(#clip0_33_20189)">
<path d="M11.375 28.01H1.875C1.60978 28.01 1.35543 28.1154 1.16789 28.3029C0.980357 28.4904 0.875 28.7448 0.875 29.01L0.875 43.01C0.875 44.3361 1.40178 45.6079 2.33947 46.5455C3.27715 47.4832 4.54892 48.01 5.875 48.01H11.375C11.6402 48.01 11.8946 47.9047 12.0821 47.7171C12.2696 47.5296 12.375 47.2752 12.375 47.01V29.01C12.375 28.7448 12.2696 28.4904 12.0821 28.3029C11.8946 28.1154 11.6402 28.01 11.375 28.01Z" fill="url(#paint0_linear_33_20189)"/>
<path d="M33.375 28.01H30.875C30.6098 28.01 30.3554 28.1154 30.1679 28.3029C29.9804 28.4904 29.875 28.7448 29.875 29.01V31.01C29.875 32.3361 29.3482 33.6079 28.4105 34.5455C27.4729 35.4832 26.2011 36.01 24.875 36.01C23.5489 36.01 22.2771 35.4832 21.3395 34.5455C20.4018 33.6079 19.875 32.3361 19.875 31.01V29.01C19.875 28.7448 19.7696 28.4904 19.5821 28.3029C19.3946 28.1154 19.1402 28.01 18.875 28.01H16.375C16.1098 28.01 15.8554 28.1154 15.6679 28.3029C15.4804 28.4904 15.375 28.7448 15.375 29.01V47.01C15.375 47.2752 15.4804 47.5296 15.6679 47.7171C15.8554 47.9047 16.1098 48.01 16.375 48.01H33.375C33.6402 48.01 33.8946 47.9047 34.0821 47.7171C34.2696 47.5296 34.375 47.2752 34.375 47.01V29.01C34.375 28.7448 34.2696 28.4904 34.0821 28.3029C33.8946 28.1154 33.6402 28.01 33.375 28.01Z" fill="url(#paint1_linear_33_20189)"/>
<path d="M47.875 28.01H38.375C38.1098 28.01 37.8554 28.1154 37.6679 28.3029C37.4804 28.4904 37.375 28.7448 37.375 29.01V47.01C37.375 47.2752 37.4804 47.5296 37.6679 47.7171C37.8554 47.9047 38.1098 48.01 38.375 48.01H43.875C44.5316 48.01 45.1818 47.8807 45.7884 47.6294C46.395 47.3781 46.9462 47.0098 47.4105 46.5455C47.8748 46.0812 48.2431 45.5301 48.4944 44.9234C48.7457 44.3168 48.875 43.6666 48.875 43.01V29.01C48.875 28.7448 48.7696 28.4904 48.5821 28.3029C48.3946 28.1154 48.1402 28.01 47.875 28.01Z" fill="url(#paint2_linear_33_20189)"/>
<path d="M24.875 33.016C25.9796 33.016 26.875 32.1206 26.875 31.016C26.875 29.9114 25.9796 29.016 24.875 29.016C23.7704 29.016 22.875 29.9114 22.875 31.016C22.875 32.1206 23.7704 33.016 24.875 33.016Z" fill="url(#paint3_linear_33_20189)"/>
<path d="M24.875 7C25.4054 7 25.9141 6.78929 26.2892 6.41421C26.6643 6.03914 26.875 5.53043 26.875 5V2C26.875 1.46957 26.6643 0.960859 26.2892 0.585786C25.9141 0.210714 25.4054 0 24.875 0C24.3446 0 23.8359 0.210714 23.4608 0.585786C23.0857 0.960859 22.875 1.46957 22.875 2V5C22.875 5.53043 23.0857 6.03914 23.4608 6.41421C23.8359 6.78929 24.3446 7 24.875 7Z" fill="url(#paint4_linear_33_20189)"/>
<path d="M41.875 12.344C42.1623 12.3442 42.4462 12.2824 42.7074 12.163C42.9687 12.0436 43.2011 11.8693 43.389 11.652L45.351 9.38201C45.6979 8.98047 45.8711 8.45757 45.8325 7.92834C45.7938 7.39912 45.5465 6.90691 45.145 6.56001C44.9462 6.38824 44.7155 6.25731 44.4661 6.1747C44.2166 6.0921 43.9534 6.05942 43.6913 6.07855C43.1621 6.11718 42.6699 6.36447 42.323 6.76601L40.361 9.03601C40.1103 9.32597 39.9483 9.68186 39.8941 10.0613C39.8399 10.4408 39.8959 10.8278 40.0554 11.1763C40.2149 11.5249 40.4712 11.8202 40.7938 12.0272C41.1164 12.2342 41.4917 12.3442 41.875 12.344Z" fill="url(#paint5_linear_33_20189)"/>
<path d="M6.36301 11.652C6.70992 12.0533 7.20202 12.3003 7.73106 12.3387C8.2601 12.3772 8.78274 12.2039 9.18401 11.857C9.58529 11.5101 9.83232 11.018 9.87076 10.4889C9.90921 9.9599 9.73592 9.43726 9.38901 9.03599L7.42701 6.76599C7.08011 6.36471 6.58801 6.11768 6.05897 6.07924C5.52993 6.04079 5.00729 6.21408 4.60601 6.56099C4.20474 6.90789 3.95771 7.39999 3.91927 7.92903C3.88082 8.45807 4.05411 8.98071 4.40101 9.38199L6.36301 11.652Z" fill="url(#paint6_linear_33_20189)"/>
<path d="M4.87501 24.014C4.87501 24.2793 4.98037 24.5336 5.1679 24.7211C5.35544 24.9087 5.60979 25.014 5.87501 25.014H43.875C44.1402 25.014 44.3946 24.9087 44.5821 24.7211C44.7697 24.5336 44.875 24.2793 44.875 24.014C44.9237 23.1272 44.789 22.2399 44.4792 21.4074C44.1695 20.575 43.6915 19.8154 43.075 19.176C42.383 18.504 40.787 17.138 36.313 17.012C36.1191 17.0066 35.931 16.9449 35.7716 16.8345C35.6121 16.7241 35.4882 16.5696 35.415 16.39C33.975 12.866 30.365 11.014 24.875 11.014C19.385 11.014 15.777 12.866 14.339 16.4C14.2656 16.5799 14.1414 16.7346 13.9816 16.845C13.8218 16.9555 13.6332 17.017 13.439 17.022C8.96701 17.146 7.37701 18.506 6.67901 19.184C6.06291 19.8222 5.58479 20.5804 5.27443 21.4113C4.96406 22.2423 4.8281 23.1282 4.87501 24.014Z" fill="url(#paint7_linear_33_20189)"/>
</g>
<defs>
<linearGradient id="paint0_linear_33_20189" x1="6.625" y1="48.01" x2="6.625" y2="28.0099" gradientUnits="userSpaceOnUse">
<stop stop-color="#9F2FFF"/>
<stop offset="1" stop-color="#0BB1D3"/>
</linearGradient>
<linearGradient id="paint1_linear_33_20189" x1="24.875" y1="48.01" x2="24.875" y2="28.0099" gradientUnits="userSpaceOnUse">
<stop stop-color="#9F2FFF"/>
<stop offset="1" stop-color="#0BB1D3"/>
</linearGradient>
<linearGradient id="paint2_linear_33_20189" x1="43.125" y1="48.01" x2="43.125" y2="28.0099" gradientUnits="userSpaceOnUse">
<stop stop-color="#9F2FFF"/>
<stop offset="1" stop-color="#0BB1D3"/>
</linearGradient>
<linearGradient id="paint3_linear_33_20189" x1="24.875" y1="33.016" x2="24.875" y2="29.016" gradientUnits="userSpaceOnUse">
<stop stop-color="#9F2FFF"/>
<stop offset="1" stop-color="#0BB1D3"/>
</linearGradient>
<linearGradient id="paint4_linear_33_20189" x1="24.875" y1="7" x2="24.875" y2="-2.25306e-05" gradientUnits="userSpaceOnUse">
<stop stop-color="#9F2FFF"/>
<stop offset="1" stop-color="#0BB1D3"/>
</linearGradient>
<linearGradient id="paint5_linear_33_20189" x1="42.8559" y1="12.344" x2="42.8559" y2="6.07322" gradientUnits="userSpaceOnUse">
<stop stop-color="#9F2FFF"/>
<stop offset="1" stop-color="#0BB1D3"/>
</linearGradient>
<linearGradient id="paint6_linear_33_20189" x1="6.89501" y1="12.344" x2="6.89501" y2="6.07395" gradientUnits="userSpaceOnUse">
<stop stop-color="#9F2FFF"/>
<stop offset="1" stop-color="#0BB1D3"/>
</linearGradient>
<linearGradient id="paint7_linear_33_20189" x1="24.8753" y1="25.014" x2="24.8753" y2="11.014" gradientUnits="userSpaceOnUse">
<stop stop-color="#9F2FFF"/>
<stop offset="1" stop-color="#0BB1D3"/>
</linearGradient>
<clipPath id="clip0_33_20189">
<rect width="48" height="48" fill="white" transform="translate(0.875)"/>
</clipPath>
</defs>
</svg>
