<svg width="49" height="48" viewBox="0 0 49 48" fill="none" xmlns="http://www.w3.org/2000/svg">
<path d="M7.30716 33.9825C6.20045 34.1929 5.21158 34.8075 4.53298 35.7067C3.85437 36.6059 3.53457 37.7254 3.63579 38.8473C3.73702 39.9693 4.25204 41.0135 5.08063 41.7767C5.90922 42.5399 6.99212 42.9676 8.11861 42.9765H40.097C40.7274 42.9913 41.3536 42.8699 41.9327 42.6205C42.5119 42.3711 43.0303 41.9996 43.4527 41.5314C44.1851 40.6844 44.5831 39.5992 44.572 38.4795C44.625 37.4113 44.2813 36.3611 43.6069 35.531C42.9324 34.7009 41.9749 34.1494 40.9185 33.9825H7.30716Z" fill="url(#paint0_linear_33_20198)"/>
<path d="M40.4968 31.9839C40.7275 31.9844 40.9513 31.9051 41.1302 31.7594C41.3091 31.6136 41.432 31.4105 41.4782 31.1845L43.8765 18.9727C44.9209 18.9118 45.9116 18.4899 46.6791 17.7791C47.4467 17.0683 47.9433 16.1128 48.084 15.0762C48.2247 14.0396 48.0008 12.9863 47.4505 12.0966C46.9002 11.2069 46.0579 10.5361 45.0676 10.199C44.0772 9.86196 43.0005 9.87956 42.0218 10.2488C41.043 10.6181 40.223 11.316 39.7021 12.2232C39.1812 13.1304 38.9918 14.1905 39.1663 15.2219C39.3408 16.2534 39.8684 17.1921 40.6587 17.8774L35.812 23.4077C35.7195 23.5132 35.6059 23.5981 35.4785 23.6567C35.3511 23.7154 35.2128 23.7466 35.0725 23.7483C34.9322 23.75 34.7932 23.7222 34.6644 23.6666C34.5356 23.611 34.42 23.5289 34.325 23.4257L26.2125 14.5737C27.3871 14.0868 28.3565 13.2078 28.9557 12.0863C29.5548 10.9649 29.7467 9.67037 29.4984 8.42336C29.2502 7.17634 28.5774 6.05395 27.5944 5.24739C26.6115 4.44083 25.3794 4 24.1079 4C22.8364 4 21.6043 4.44083 20.6213 5.24739C19.6384 6.05395 18.9656 7.17634 18.7174 8.42336C18.4691 9.67037 18.661 10.9649 19.2601 12.0863C19.8593 13.2078 20.8287 14.0868 22.0033 14.5737L13.9148 23.3977C13.8192 23.5019 13.7027 23.5847 13.5728 23.6405C13.4429 23.6963 13.3026 23.7239 13.1613 23.7215C13.0201 23.7192 12.8811 23.687 12.7533 23.6271C12.6255 23.5671 12.5118 23.4808 12.4198 23.3737L7.63502 17.8095C8.40443 17.108 8.90593 16.1608 9.05359 15.1301C9.20126 14.0995 8.9859 13.0495 8.44441 12.1602C7.90293 11.2709 7.06903 10.5976 6.0856 10.2557C5.10217 9.91373 4.03043 9.92443 3.05402 10.286C2.07762 10.6475 1.25733 11.3373 0.733709 12.2372C0.210091 13.1372 0.0157395 14.1912 0.183957 15.2187C0.352175 16.2462 0.87249 17.1832 1.65575 17.8692C2.439 18.5552 3.43644 18.9474 4.47716 18.9787L6.7776 31.1705C6.82088 31.3991 6.9426 31.6055 7.12174 31.754C7.30089 31.9025 7.52625 31.9838 7.75894 31.9839H40.4968Z" fill="url(#paint1_linear_33_20198)"/>
<defs>
<linearGradient id="paint0_linear_33_20198" x1="24.0974" y1="42.9777" x2="24.0974" y2="33.9825" gradientUnits="userSpaceOnUse">
<stop stop-color="#9F2FFF"/>
<stop offset="1" stop-color="#0BB1D3"/>
</linearGradient>
<linearGradient id="paint1_linear_33_20198" x1="24.125" y1="31.9839" x2="24.125" y2="3.99991" gradientUnits="userSpaceOnUse">
<stop stop-color="#9F2FFF"/>
<stop offset="1" stop-color="#0BB1D3"/>
</linearGradient>
</defs>
</svg>
