<svg width="116" height="48" viewBox="0 0 116 48" fill="none" xmlns="http://www.w3.org/2000/svg">
<path d="M73.9237 30.7249C75.4939 31.2557 76.3011 31.9744 76.3343 32.8922C76.1463 35.3027 75.2506 36.508 73.6473 36.508H69.5781L68.0853 32.273C69.4122 34.0311 70.8276 34.9157 72.3093 34.9378C73.0612 34.7388 73.4261 34.2191 73.4261 33.3787C70.142 32.3061 68.5055 30.6696 68.5055 28.4692C68.5055 26.6558 69.7329 25.6495 72.1987 25.4505C74.6646 25.2514 75.892 25.8264 75.892 27.1644C75.5934 28.3918 75.0516 29.011 74.2665 29.0221L73.0723 28.0158C73.7247 27.4519 73.6915 27.0207 72.9728 26.711C71.9886 27.0428 71.5021 27.5072 71.5021 28.1043C71.5463 29.3096 72.3535 30.1831 73.9237 30.7028V30.7249Z" fill="#62D6FF"/>
<path d="M108.373 30.7249C109.943 31.2557 110.75 31.9744 110.784 32.8922C110.596 35.3027 109.7 36.508 108.097 36.508H104.027L102.535 32.273C103.862 34.0311 105.277 34.9157 106.759 34.9378C107.511 34.7388 107.875 34.2191 107.875 33.3787C104.591 32.3061 102.955 30.6696 102.955 28.4692C102.955 26.6558 104.182 25.6495 106.648 25.4505C109.114 25.2514 110.341 25.8264 110.341 27.1644C110.043 28.3918 109.501 29.011 108.716 29.0221L107.522 28.0158C108.174 27.4519 108.141 27.0207 107.422 26.711C106.438 27.0428 105.951 27.5072 105.951 28.1043C105.996 29.3096 106.803 30.1831 108.373 30.7028V30.7249Z" fill="#62D6FF"/>
<path d="M81.3101 34.0427C81.3322 34.3192 81.3764 34.5624 81.4317 34.7725C82.9245 34.6288 84.3066 34.3302 85.5672 33.8879C84.8374 34.6951 84.4062 35.5797 84.2514 36.5528C83.8422 36.5528 83.4552 36.5528 83.0903 36.5528H78.2029V36.4201C78.3356 36.2542 78.4351 36.0663 78.5014 35.8672V35.7677C78.5236 35.436 78.5457 35.0379 78.5457 34.5845C78.5457 28.8015 78.3577 25.8712 77.9707 25.7717L81.4538 25.2078L81.3211 27.6294V34.0538L81.3101 34.0427Z" fill="#62D6FF"/>
<path d="M90.4325 25.4066C92.1243 25.4066 93.1195 26.5677 93.4181 28.8897V31.7426C93.4181 34.9382 92.4229 36.5416 90.4325 36.5416H88.4864C86.7946 36.5416 85.7994 35.3805 85.5009 33.0584V30.2056C85.5009 27.01 86.4961 25.4066 88.4864 25.4066H90.4325ZM89.0946 27.1537C88.9508 27.2532 88.7407 27.2975 88.4864 27.2975V33.5118C88.4864 34.2526 88.9066 34.6949 89.7249 34.8608C89.935 34.7613 90.1672 34.7171 90.4215 34.7171V28.5027C90.4215 27.7619 89.9792 27.3196 89.0835 27.1537H89.0946Z" fill="#62D6FF"/>
<path d="M99.0574 27.3861V27.4524C99.0574 33.2355 99.2454 36.1657 99.6324 36.2653L96.1493 36.8292L96.2819 34.4076V27.9832C96.2598 27.7067 96.2156 27.4635 96.1603 27.2534C95.53 27.3971 94.5791 27.6957 93.3185 28.138C94.0483 27.3308 94.4796 26.4462 94.6344 25.4731C95.0435 25.4731 95.4305 25.4731 95.7954 25.4731H99.3891H99.4776C99.8425 25.4731 100.229 25.4731 100.639 25.4731C100.793 26.4462 101.225 27.3308 101.954 28.138C100.694 27.6957 99.7429 27.3971 99.1127 27.2534C99.1016 27.3087 99.0906 27.364 99.0684 27.4192L99.0353 27.375L99.0574 27.3861Z" fill="#62D6FF"/>
<path d="M68.2536 13.3652V13.4316C68.2536 19.2147 68.4416 22.1449 68.8286 22.2444L65.3455 22.8083L65.4781 20.3868V13.9623C65.456 13.6859 65.4118 13.4426 65.3565 13.2325C64.7262 13.3763 63.7753 13.6748 62.5147 14.1171C63.2445 13.3099 63.6758 12.4253 63.8306 11.4523C64.2397 11.4523 64.6267 11.4523 64.9916 11.4523H68.5853H68.6738C69.0387 11.4523 69.4257 11.4523 69.8348 11.4523C69.9896 12.4253 70.4209 13.3099 71.1507 14.1171C69.8901 13.6748 68.9391 13.3763 68.3089 13.2325C68.2978 13.2878 68.2868 13.3431 68.2646 13.3984L68.2315 13.3542L68.2536 13.3652Z" fill="white"/>
<path d="M76.4582 18.2632V20.3973L77.1437 21.8569L73.2847 20.5632V20.4305C73.55 20.0988 73.6827 19.7007 73.6827 19.2473V12.9998H73.55C72.8424 13.1325 72.4885 13.3979 72.4885 13.7849C72.389 13.7849 72.1347 13.2542 71.7034 12.1926C71.6481 12.1926 71.427 11.9272 71.04 11.4075H77.7851C79.698 11.4075 80.8038 12.3695 81.0913 14.2825C81.0028 15.8084 80.1846 16.8036 78.6586 17.268C79.8197 19.3026 81.622 21.5031 84.0657 23.8804L79.0235 22.5204C79.3442 21.9011 78.4927 20.4858 76.4692 18.2743L76.4582 18.2632ZM78.2495 14.5258C78.0947 13.5085 77.586 12.9998 76.7125 12.9998H75.651V13.1325L76.4471 13.3979V16.3834C77.6192 16.3281 78.2163 15.7089 78.2384 14.5258H78.2495Z" fill="white"/>
<path d="M86.1335 12.2923V20.0105C86.222 20.9283 86.2331 21.9234 86.1778 22.996L82.96 21.8571V21.7244C83.2254 21.3927 83.3581 20.9946 83.3581 20.5412V11.5957L86.4321 11.5846L86.1335 12.2923Z" fill="white"/>
<path d="M93.4759 13.3652V13.4316C93.4759 19.2147 93.6639 22.1449 94.0509 22.2444L90.5678 22.8083L90.7005 20.3868V13.9623C90.6783 13.6859 90.6341 13.4426 90.5788 13.2325C89.9485 13.3763 88.9976 13.6748 87.737 14.1171C88.4668 13.3099 88.8981 12.4253 89.0529 11.4523C89.462 11.4523 89.849 11.4523 90.2139 11.4523H93.8076H93.8961C94.261 11.4523 94.648 11.4523 95.0571 11.4523C95.2119 12.4253 95.6432 13.3099 96.373 14.1171C95.1124 13.6748 94.1615 13.3763 93.5312 13.2325C93.5201 13.2878 93.5091 13.3431 93.487 13.3984L93.4538 13.3542L93.4759 13.3652Z" fill="white"/>
<path d="M102.731 11.3858C104.423 11.3858 105.418 12.5468 105.717 14.8689V17.7217C105.717 20.9174 104.721 22.5207 102.731 22.5207H100.785C99.093 22.5207 98.0979 21.3597 97.7993 19.0376V16.1847C97.7993 12.9891 98.7945 11.3858 100.785 11.3858H102.731ZM101.393 13.1329C101.249 13.2324 101.039 13.2766 100.785 13.2766V19.4909C100.785 20.2318 101.205 20.6741 102.023 20.84C102.233 20.7404 102.466 20.6962 102.72 20.6962V14.4708C102.72 13.73 102.278 13.2877 101.382 13.1218L101.393 13.1329Z" fill="white"/>
<path d="M112.915 15.9634V11.5957L116 11.5846L115.701 12.2923V20.7292C115.79 21.647 115.801 22.6421 115.746 23.7147L112.528 22.5758V22.4431C112.793 22.1114 112.926 21.7133 112.926 21.2599V20.508L111.168 17.6331V19.3581C111.256 20.2758 111.267 21.271 111.212 22.3436L107.994 21.2047V21.072C108.26 20.7402 108.392 20.3422 108.392 19.8888V11.5957L109.708 10.8327L112.926 15.9634H112.915Z" fill="white"/>
<g clip-path="url(#clip0_33_19664)">
<mask id="mask0_33_19664" style="mask-type:luminance" maskUnits="userSpaceOnUse" x="41" y="25" width="10" height="11">
<path d="M41.5644 28.4447C41.5644 28.4447 48.8856 33.6464 50.6066 35.7769C50.6066 35.7769 51.1464 29.4861 45.988 26.8601C40.8275 24.2351 41.5644 28.4447 41.5644 28.4447Z" fill="white"/>
</mask>
<g mask="url(#mask0_33_19664)">
<path d="M40.828 24.2351H51.1464V35.777H40.828V24.2351Z" fill="url(#paint0_linear_33_19664)"/>
</g>
<mask id="mask1_33_19664" style="mask-type:luminance" maskUnits="userSpaceOnUse" x="3" y="13" width="12" height="6">
<path d="M14.2429 17.9437L11.1476 13.4354C11.1476 13.4354 7.51104 16.2588 3.136 16.0116C3.136 16.0116 4.75897 17.3983 7.75565 18.0429C7.75565 18.0429 11.7829 15.9472 14.2429 17.9442V17.9437Z" fill="white"/>
</mask>
<g mask="url(#mask1_33_19664)">
<path d="M3.13652 13.4354H14.2429V18.0424H3.13652V13.4354Z" fill="url(#paint1_linear_33_19664)"/>
</g>
<mask id="mask2_33_19664" style="mask-type:luminance" maskUnits="userSpaceOnUse" x="11" y="6" width="6" height="12">
<path d="M15.1269 17.9437L12.2767 15.9617L11.1481 13.4354C11.1481 13.4354 14.1448 10.8598 13.4569 6.5C13.4569 6.5 15.8658 9.3234 16.0114 12.3452C16.0114 12.3452 13.1132 14.3267 15.1269 17.9432V17.9437Z" fill="white"/>
</mask>
<g mask="url(#mask2_33_19664)">
<path d="M11.1481 6.5H16.0114V17.9437H11.1481V6.5Z" fill="url(#paint2_linear_33_19664)"/>
</g>
<mask id="mask3_33_19664" style="mask-type:luminance" maskUnits="userSpaceOnUse" x="11" y="13" width="31" height="17">
<path d="M41.2703 19.0832L37.1424 18.7851C37.1424 18.7851 20.3369 25.076 11.1487 13.4349C11.1487 13.4349 12.671 24.5805 24.4652 29.7333L32.081 27.6526L41.2703 19.0827V19.0832Z" fill="white"/>
</mask>
<g mask="url(#mask3_33_19664)">
<path d="M11.1481 13.4357H41.2703V29.7341H11.1481V13.4357Z" fill="url(#paint3_linear_33_19664)"/>
</g>
<mask id="mask4_33_19664" style="mask-type:luminance" maskUnits="userSpaceOnUse" x="24" y="10" width="30" height="22">
<path d="M32.9661 27.4542L24.4647 29.7338C24.4647 29.7338 37.9779 34.3896 47.4112 27.7025C56.8466 21.0148 52.8669 10.7107 52.8669 10.7107L32.9661 27.4542Z" fill="white"/>
</mask>
<g mask="url(#mask4_33_19664)">
<path d="M24.4647 10.7107H56.8466V34.3896H24.4647V10.7107Z" fill="url(#paint4_linear_33_19664)"/>
</g>
<mask id="mask5_33_19664" style="mask-type:luminance" maskUnits="userSpaceOnUse" x="30" y="22" width="11" height="18">
<path d="M40.8275 24.7301C40.8275 24.7301 42.6455 37.2629 30.9994 39.6905C30.9994 39.6905 34.4801 36.0325 35.3734 27.5535C36.2662 19.0755 40.828 24.7301 40.828 24.7301H40.8275Z" fill="white"/>
</mask>
<g mask="url(#mask5_33_19664)">
<path d="M30.9989 19.0754H42.6456V39.6905H30.9989V19.0754Z" fill="url(#paint5_linear_33_19664)"/>
</g>
<mask id="mask6_33_19664" style="mask-type:luminance" maskUnits="userSpaceOnUse" x="24" y="10" width="29" height="20">
<path d="M52.8669 10.7107C52.8669 10.7107 45.5948 32.6071 24.4647 29.7338C24.4647 29.7338 31.8839 26.1173 37.1419 18.7851C37.1419 18.7851 40.5323 17.8445 52.8669 10.7107Z" fill="white"/>
</mask>
<g mask="url(#mask6_33_19664)">
<path d="M24.4647 10.7107H52.8669V32.6071H24.4647V10.7107Z" fill="url(#paint6_linear_33_19664)"/>
</g>
</g>
<defs>
<linearGradient id="paint0_linear_33_19664" x1="52.5129" y1="38.1527" x2="45.5483" y2="29.5701" gradientUnits="userSpaceOnUse">
<stop stop-color="#30ADE0"/>
<stop offset="1" stop-color="#000001"/>
</linearGradient>
<linearGradient id="paint1_linear_33_19664" x1="3.28359" y1="15.5337" x2="16.4637" y2="16.0275" gradientUnits="userSpaceOnUse">
<stop stop-color="#0999CC"/>
<stop offset="1" stop-color="#000001"/>
</linearGradient>
<linearGradient id="paint2_linear_33_19664" x1="13.6123" y1="9.46935" x2="13.4988" y2="18.8827" gradientUnits="userSpaceOnUse">
<stop stop-color="#0BB1D3"/>
<stop offset="1" stop-color="#000001"/>
</linearGradient>
<linearGradient id="paint3_linear_33_19664" x1="14.0375" y1="20.1509" x2="59.8368" y2="25.4775" gradientUnits="userSpaceOnUse">
<stop stop-color="#3E7AA8"/>
<stop offset="1" stop-color="#000001"/>
</linearGradient>
<linearGradient id="paint4_linear_33_19664" x1="55.6396" y1="16.0874" x2="21.2654" y2="30.723" gradientUnits="userSpaceOnUse">
<stop stop-color="white"/>
<stop offset="1" stop-color="#000001"/>
</linearGradient>
<linearGradient id="paint5_linear_33_19664" x1="35.2919" y1="39.0631" x2="38.1065" y2="21.4915" gradientUnits="userSpaceOnUse">
<stop stop-color="#5DB0ED"/>
<stop offset="1" stop-color="#000001"/>
</linearGradient>
<linearGradient id="paint6_linear_33_19664" x1="37.1842" y1="28.3216" x2="41.9237" y2="7.2843" gradientUnits="userSpaceOnUse">
<stop stop-color="#328FDF"/>
<stop offset="1" stop-color="#8DD7F7"/>
</linearGradient>
<clipPath id="clip0_33_19664">
<rect width="60.0389" height="34.6616" fill="white" transform="matrix(-1 0 0 1 60.0389 6.5)"/>
</clipPath>
</defs>
</svg>
