<svg width="25" height="25" viewBox="0 0 25 25" fill="none" xmlns="http://www.w3.org/2000/svg">
<path d="M4.13472 17.4912C3.58137 17.5964 3.08693 17.9037 2.74763 18.3533C2.40833 18.8029 2.24842 19.3626 2.29904 19.9236C2.34965 20.4846 2.60716 21.0067 3.02146 21.3883C3.43575 21.7699 3.9772 21.9837 4.54045 21.9882H20.5296C20.8448 21.9956 21.1579 21.9349 21.4475 21.8102C21.7371 21.6855 21.9963 21.4997 22.2075 21.2657C22.5737 20.8421 22.7727 20.2995 22.7671 19.7397C22.7937 19.2056 22.6218 18.6805 22.2846 18.2654C21.9474 17.8504 21.4686 17.5746 20.9404 17.4912H4.13472Z" fill="url(#paint0_linear_33_20289)"/>
<path d="M20.7296 16.492C20.8449 16.4922 20.9568 16.4525 21.0462 16.3797C21.1357 16.3068 21.1972 16.2053 21.2202 16.0922L22.4194 9.98635C22.9416 9.95591 23.4369 9.74494 23.8207 9.38954C24.2045 9.03413 24.4528 8.5564 24.5231 8.03809C24.5935 7.51979 24.4815 6.99315 24.2064 6.5483C23.9313 6.10345 23.5101 5.76806 23.0149 5.59952C22.5198 5.43098 21.9814 5.43978 21.492 5.6244C21.0026 5.80903 20.5926 6.15801 20.3322 6.61161C20.0717 7.06521 19.977 7.59523 20.0643 8.11095C20.1515 8.62668 20.4153 9.09605 20.8105 9.43872L18.3871 12.2039C18.3409 12.2566 18.2841 12.299 18.2204 12.3284C18.1567 12.3577 18.0875 12.3733 18.0174 12.3742C17.9473 12.375 17.8777 12.3611 17.8133 12.3333C17.7489 12.3055 17.6911 12.2645 17.6436 12.2128L13.5874 7.78684C14.1747 7.54341 14.6594 7.10389 14.959 6.54317C15.2586 5.98244 15.3545 5.33519 15.2304 4.71168C15.1063 4.08817 14.7698 3.52697 14.2784 3.12369C13.7869 2.72041 13.1708 2.5 12.5351 2.5C11.8993 2.5 11.2833 2.72041 10.7918 3.12369C10.3004 3.52697 9.96392 4.08817 9.83982 4.71168C9.71571 5.33519 9.81162 5.98244 10.1112 6.54317C10.4108 7.10389 10.8955 7.54341 11.4828 7.78684L7.43853 12.1989C7.39076 12.251 7.33247 12.2923 7.26753 12.3202C7.20259 12.3481 7.13246 12.3619 7.06179 12.3607C6.99121 12.3596 6.92168 12.3435 6.85778 12.3135C6.79388 12.2836 6.73705 12.2404 6.69104 12.1869L4.29865 9.40475C4.68335 9.054 4.9341 8.58039 5.00794 8.06506C5.08177 7.54973 4.97409 7.02477 4.70335 6.58012C4.4326 6.13547 4.01565 5.79881 3.52394 5.62784C3.03222 5.45687 2.49635 5.46222 2.00815 5.64298C1.51995 5.82373 1.1098 6.16865 0.847995 6.61862C0.586186 7.06858 0.48901 7.5956 0.573119 8.10935C0.657228 8.6231 0.917385 9.09161 1.30901 9.4346C1.70064 9.77759 2.19936 9.97371 2.71972 9.98935L3.86994 16.0852C3.89158 16.1996 3.95244 16.3027 4.04201 16.377C4.13159 16.4512 4.24426 16.4919 4.36061 16.492H20.7296Z" fill="url(#paint1_linear_33_20289)"/>
<defs>
<linearGradient id="paint0_linear_33_20289" x1="12.5298" y1="21.9888" x2="12.5298" y2="17.4912" gradientUnits="userSpaceOnUse">
<stop stop-color="#9F2FFF"/>
<stop offset="1" stop-color="#0BB1D3"/>
</linearGradient>
<linearGradient id="paint1_linear_33_20289" x1="12.5436" y1="16.492" x2="12.5436" y2="2.49995" gradientUnits="userSpaceOnUse">
<stop stop-color="#9F2FFF"/>
<stop offset="1" stop-color="#0BB1D3"/>
</linearGradient>
</defs>
</svg>
