<svg width="24" height="24" viewBox="0 0 24 24" fill="none" xmlns="http://www.w3.org/2000/svg">
<path d="M12 18.5625C11.7413 18.5625 11.5312 18.7725 11.5312 19.0312C11.5312 19.29 11.7413 19.5 12 19.5C12.2588 19.5 12.4688 19.29 12.4688 19.0312C12.4688 18.7725 12.2588 18.5625 12 18.5625Z" fill="white"/>
<path d="M22.125 6.375C21.0911 6.375 20.25 7.21613 20.25 8.25C20.25 8.4442 20.2798 8.63325 20.3374 8.81494C19.93 9.50442 19.4014 9.97758 18.9437 10.2891C17.6341 8.82928 15.822 7.84073 13.7761 7.47131C13.6066 6.88659 13.4926 6.28228 13.4403 5.69864C13.7185 5.36409 13.875 4.93903 13.875 4.5C13.875 3.46613 13.0339 2.625 12 2.625C10.9661 2.625 10.125 3.46613 10.125 4.5C10.125 4.93908 10.2815 5.36409 10.5597 5.69864C10.5074 6.28223 10.3934 6.8865 10.2239 7.47131C8.17795 7.84073 6.36591 8.82928 5.05627 10.2891C4.59872 9.97762 4.06997 9.50447 3.66258 8.81494C3.72023 8.63325 3.75 8.4442 3.75 8.25C3.75 7.21613 2.90887 6.375 1.875 6.375C0.841125 6.375 0 7.21613 0 8.25C0 8.95327 0.389437 9.58509 0.994969 9.90577L3.89667 18.6987C3.42234 18.925 3.09375 19.4092 3.09375 19.9688C3.09375 20.7442 3.72459 21.375 4.5 21.375H19.5C20.2754 21.375 20.9062 20.7442 20.9062 19.9688C20.9062 19.4094 20.5779 18.9254 20.1039 18.699L23.0199 9.89784C23.622 9.57309 24 8.94881 24 8.25C24 7.21613 23.1589 6.375 22.125 6.375ZM18.0934 10.7507C17.613 10.9514 17.121 11.0625 16.6875 11.0625C15.7769 11.0625 14.8034 10.0629 14.1432 8.50688C15.6869 8.88427 17.0544 9.66042 18.0934 10.7507ZM12 3.5625C12.5169 3.5625 12.9375 3.98306 12.9375 4.5C12.9375 5.02636 12.5085 5.4375 12 5.4375C11.4913 5.4375 11.0625 5.02556 11.0625 4.5C11.0625 3.98306 11.4831 3.5625 12 3.5625ZM9.85683 8.50683C9.19673 10.0628 8.22314 11.0625 7.3125 11.0625C6.87905 11.0625 6.38705 10.9514 5.90663 10.7507C6.94566 9.66042 8.31314 8.88422 9.85683 8.50683ZM1.57969 9.13964C1.57922 9.13945 1.5787 9.13931 1.57828 9.13912C1.19498 9.01195 0.9375 8.65462 0.9375 8.25C0.9375 7.73306 1.35806 7.3125 1.875 7.3125C2.39194 7.3125 2.8125 7.73306 2.8125 8.25C2.8125 8.8913 2.17922 9.34069 1.57969 9.13964ZM19.1615 18.5625H13.875C13.6162 18.5625 13.4062 18.7724 13.4062 19.0312C13.4062 19.2901 13.6162 19.5 13.875 19.5H19.4966C19.4978 19.5 19.4989 19.5001 19.5001 19.5001C19.5006 19.5001 19.5011 19.5001 19.5015 19.5001C19.7593 19.5009 19.9688 19.7108 19.9688 19.9688C19.9688 20.2272 19.7585 20.4375 19.5 20.4375H4.5C4.24153 20.4375 4.03125 20.2272 4.03125 19.9688C4.03125 19.7103 4.24153 19.5 4.5 19.5H10.125C10.3838 19.5 10.5938 19.2901 10.5938 19.0312C10.5938 18.7724 10.3838 18.5625 10.125 18.5625H4.83891L2.05144 10.1155C2.442 10.0781 2.80814 9.91852 3.09984 9.66731C3.56977 10.3304 4.18814 10.8905 4.91803 11.3073C4.91906 11.3079 4.92014 11.3084 4.92117 11.309C4.92286 11.31 4.92455 11.3109 4.92619 11.3118C5.70534 11.7556 6.55242 12 7.3125 12C9.11334 12 10.4153 9.94894 11.0333 8.02973C11.0336 8.02894 11.0338 8.02809 11.034 8.0273C11.0359 8.02139 11.0378 8.01553 11.0395 8.00958C11.2193 7.44816 11.3524 6.86395 11.4345 6.28748C11.6156 6.34477 11.8059 6.375 12 6.375C12.1941 6.375 12.3844 6.34477 12.5655 6.28748C12.6476 6.86409 12.7808 7.44844 12.9606 8.00981C12.962 8.01502 12.9637 8.02008 12.9653 8.02519C12.9658 8.02659 12.9661 8.02805 12.9666 8.02945C13.5847 9.94894 14.8867 12 16.6875 12C17.4477 12 18.295 11.7555 19.0741 11.3116C19.0756 11.3108 19.0771 11.31 19.0786 11.3091C19.0797 11.3085 19.0808 11.3079 19.0818 11.3073C19.8118 10.8905 20.4303 10.3304 20.9002 9.66722C21.1947 9.92086 21.565 10.0813 21.9598 10.1167L19.1615 18.5625ZM22.4759 9.11897C22.4686 9.12169 22.4612 9.12427 22.4541 9.12731C21.8434 9.35888 21.1875 8.90081 21.1875 8.25C21.1875 7.73306 21.6081 7.3125 22.125 7.3125C22.6419 7.3125 23.0625 7.73306 23.0625 8.25C23.0625 8.63498 22.833 8.9745 22.4759 9.11897Z" fill="white"/>
<path d="M12 12C10.7077 12 9.65625 13.2617 9.65625 14.8125C9.65625 16.3633 10.7077 17.625 12 17.625C13.2923 17.625 14.3438 16.3633 14.3438 14.8125C14.3438 13.2617 13.2923 12 12 12ZM12 16.6875C11.2246 16.6875 10.5938 15.8464 10.5938 14.8125C10.5938 13.7786 11.2246 12.9375 12 12.9375C12.7754 12.9375 13.4062 13.7786 13.4062 14.8125C13.4062 15.8464 12.7754 16.6875 12 16.6875Z" fill="white"/>
<path d="M16.6875 13.875C15.9121 13.875 15.2812 14.5058 15.2812 15.2812C15.2812 16.0567 15.9121 16.6875 16.6875 16.6875C17.4629 16.6875 18.0938 16.0567 18.0938 15.2812C18.0938 14.5058 17.4629 13.875 16.6875 13.875ZM16.6875 15.75C16.429 15.75 16.2188 15.5397 16.2188 15.2812C16.2188 15.0228 16.429 14.8125 16.6875 14.8125C16.946 14.8125 17.1562 15.0228 17.1562 15.2812C17.1562 15.5397 16.946 15.75 16.6875 15.75Z" fill="white"/>
<path d="M7.3125 13.875C6.53709 13.875 5.90625 14.5058 5.90625 15.2812C5.90625 16.0567 6.53709 16.6875 7.3125 16.6875C8.08791 16.6875 8.71875 16.0567 8.71875 15.2812C8.71875 14.5058 8.08791 13.875 7.3125 13.875ZM7.3125 15.75C7.05403 15.75 6.84375 15.5397 6.84375 15.2812C6.84375 15.0228 7.05403 14.8125 7.3125 14.8125C7.57097 14.8125 7.78125 15.0228 7.78125 15.2812C7.78125 15.5397 7.57097 15.75 7.3125 15.75Z" fill="white"/>
</svg>
