<svg width="24" height="24" viewBox="0 0 24 24" fill="none" xmlns="http://www.w3.org/2000/svg">
<path d="M14.1094 17.4374C13.8506 17.4374 13.6406 17.6474 13.6406 17.9062C13.6406 18.1649 13.8506 18.3749 14.1094 18.3749C14.3681 18.3749 14.5781 18.1649 14.5781 17.9062C14.5781 17.6474 14.3681 17.4374 14.1094 17.4374Z" fill="#FFF78C"/>
<path d="M9.89063 17.4374C9.63189 17.4374 9.42189 17.6474 9.42189 17.9062C9.42189 18.1649 9.63189 18.3749 9.89063 18.3749C10.1494 18.3749 10.3594 18.1649 10.3594 17.9062C10.3594 17.6474 10.1494 17.4374 9.89063 17.4374Z" fill="#FFF78C"/>
<path d="M13.3459 10.2787C13.2187 10.0532 12.9329 9.97347 12.7073 10.1005C12.4578 10.2411 12.2198 10.3124 12 10.3124C11.7802 10.3124 11.5422 10.2411 11.2927 10.1005C11.0672 9.97356 10.7812 10.0532 10.6541 10.2787C10.5271 10.5043 10.6068 10.7901 10.8323 10.9172C11.2241 11.138 11.6169 11.25 12 11.25C12.3831 11.25 12.7759 11.138 13.1677 10.9172C13.3932 10.7901 13.473 10.5042 13.3459 10.2787Z" fill="#FFF78C"/>
<path d="M12 18.3749C11.2246 18.3749 10.5938 19.0058 10.5938 19.7812C10.5938 20.5566 11.2246 21.1874 12 21.1874C12.7754 21.1874 13.4062 20.5566 13.4062 19.7812C13.4062 19.0058 12.7754 18.3749 12 18.3749ZM12 20.2499C11.7415 20.2499 11.5313 20.0396 11.5313 19.7812C11.5313 19.5227 11.7415 19.3124 12 19.3124C12.2585 19.3124 12.4687 19.5227 12.4687 19.7812C12.4687 20.0396 12.2585 20.2499 12 20.2499Z" fill="#FFF78C"/>
<path d="M18.0937 15.4362V6.09373C18.0937 2.7336 15.3601 0 12 0C8.63992 0 5.90627 2.7336 5.90627 6.09373V15.4361C3.57149 16.6718 2.15629 19.0878 2.15629 21.6562V22.5937C2.15629 23.3691 2.78713 23.9999 3.56253 23.9999H4.48203C4.48254 23.9999 4.48301 24 4.48353 24C4.48428 24 4.48498 23.9999 4.48569 23.9999C6.11126 23.9999 17.9379 23.9999 20.4375 23.9999C21.2129 23.9999 21.8437 23.3691 21.8437 22.5937V21.6562C21.8437 19.0706 20.4172 16.6653 18.0937 15.4362ZM12 0.937496C14.8431 0.937496 17.1562 3.25058 17.1562 6.09373C17.1562 6.23374 17.1505 6.37816 17.1393 6.52587C15.9402 6.34601 14.923 5.50817 14.524 4.35561C14.7593 4.10216 14.9821 3.83652 15.1876 3.5623C15.3428 3.35516 15.3007 3.06135 15.0935 2.9061C14.8864 2.75085 14.5926 2.79294 14.4373 3.00018C14.2012 3.31527 13.9404 3.61864 13.6622 3.90172C11.9989 5.59268 9.68452 6.56247 7.31252 6.56247H6.86407C6.85099 6.40212 6.84377 6.24523 6.84377 6.09373C6.84377 3.25058 9.15685 0.937496 12 0.937496ZM15.2812 12.5663C16.0206 11.8522 16.6687 10.9148 17.1562 9.89045V15.0255C16.5371 14.8066 15.9084 14.6818 15.2812 14.6404V12.5663ZM14.4972 12.0169C13.7 12.7418 12.8365 13.1249 12 13.1249C11.1635 13.1249 10.3 12.7418 9.50284 12.0168C8.31897 10.9407 7.37228 9.21311 7.00474 7.49997H7.31256C9.72301 7.49997 12.027 6.6161 13.7999 5.06046C14.395 6.33635 15.6033 7.24474 17.0047 7.45361C16.6447 9.18193 15.692 10.931 14.4972 12.0169ZM6.84377 9.88998C7.33136 10.9146 7.9795 11.852 8.71876 12.5663V14.6403C8.12842 14.6792 7.47995 14.8015 6.84377 15.0263V9.88998ZM4.11439 23.0624H3.56253C3.30406 23.0624 3.09378 22.8521 3.09378 22.5937V21.6562C3.09378 20.0097 3.76302 18.4449 4.92012 17.3077C4.83261 19.2449 4.56265 21.1747 4.11439 23.0624ZM5.07701 23.0624C5.56943 20.922 5.83999 18.7307 5.88279 16.5362C6.20923 16.325 6.51316 16.1687 6.83308 16.0346C6.89463 18.4519 7.44681 20.8584 8.44422 23.0624H5.07701ZM12.4687 23.0624V22.5937C12.4687 22.3348 12.2589 22.1249 12 22.1249C11.7411 22.1249 11.5313 22.3348 11.5313 22.5937V23.0624H9.47907C8.37831 20.7844 7.78787 18.2589 7.76552 15.7303C8.08736 15.6532 8.41576 15.6018 8.74825 15.5782C8.77018 15.7777 8.80393 15.9923 8.84954 16.2169C8.9012 16.4711 9.14917 16.6344 9.40224 16.583C9.65593 16.5314 9.81985 16.284 9.76829 16.0303C9.69502 15.6695 9.65626 15.3457 9.65626 15.0938V13.3182C10.4105 13.8074 11.2074 14.0625 12 14.0625C12.7926 14.0625 13.5895 13.8074 14.3437 13.3182V15.0937C14.3437 15.3456 14.305 15.6694 14.2317 16.0302C14.1729 16.3197 14.3938 16.5923 14.6916 16.5923C14.9098 16.5923 15.1053 16.439 15.1505 16.2168C15.1961 15.9922 15.2298 15.7776 15.2518 15.5781C15.578 15.6014 15.9007 15.6515 16.2177 15.7263C16.1959 18.2571 15.6054 20.7841 14.5041 23.0624H12.4687ZM15.539 23.0624C16.5373 20.8571 17.0895 18.448 17.1502 16.0278C17.2044 16.0503 17.2581 16.0738 17.3117 16.0979C17.3774 16.1571 17.4597 16.1978 17.5511 16.2123C17.7391 16.3072 17.923 16.4112 18.1002 16.5249C18.1423 18.7234 18.4129 20.9184 18.9061 23.0624H15.539ZM20.9062 22.5937C20.9062 22.8521 20.6959 23.0624 20.4375 23.0624H19.8687C19.4192 21.1691 19.149 19.2333 19.0623 17.29C20.2304 18.4285 20.9062 20.0002 20.9062 21.6562V22.5937Z" fill="#FFF78C"/>
</svg>
