<svg width="24" height="24" viewBox="0 0 24 24" fill="none" xmlns="http://www.w3.org/2000/svg">
<g clip-path="url(#clip0_33_19604)">
<path d="M14.807 11.5509C14.7644 11.5383 14.7189 11.5312 14.672 11.5312C14.4133 11.5312 14.2032 11.7413 14.2032 12C14.2032 12.2166 14.3499 12.399 14.5496 12.4524C14.5885 12.4632 14.6298 12.4688 14.672 12.4688C14.9307 12.4688 15.1408 12.2588 15.1408 12C15.1408 11.7881 15.0001 11.6091 14.807 11.5509Z" fill="white"/>
<path d="M23.8833 7.9395L18.92 2.32064C18.9193 2.31979 18.9186 2.319 18.9178 2.31815C18.8086 2.21372 18.7338 2.15573 18.563 2.15573H5.43723C5.27641 2.15573 5.18969 2.21564 5.08239 2.31815C5.08169 2.319 5.08094 2.31979 5.08019 2.32064L0.116922 7.9395C-0.0384691 8.11537 -0.0388909 8.38275 0.116078 8.55923L11.6479 21.6849C11.6495 21.6867 11.6512 21.6882 11.6528 21.6899C11.6608 21.6988 11.6692 21.7072 11.6778 21.7155C11.6804 21.7179 11.6829 21.7205 11.6855 21.7229C11.6966 21.7329 11.7081 21.7424 11.7201 21.7514C11.7224 21.7531 11.7249 21.7546 11.7273 21.7563C11.7371 21.7634 11.7473 21.7701 11.7577 21.7764C11.7615 21.7787 11.7654 21.7809 11.7693 21.7831C11.7794 21.7889 11.7897 21.7942 11.8002 21.7991C11.8034 21.8006 11.8065 21.8023 11.8097 21.8037C11.8234 21.8098 11.8375 21.8153 11.8519 21.8202C11.8537 21.8208 11.8555 21.8212 11.8573 21.8218C11.8698 21.8257 11.8825 21.8292 11.8953 21.8322C11.8996 21.8332 11.9038 21.834 11.908 21.8348C11.9191 21.837 11.9302 21.8388 11.9415 21.8402C11.9457 21.8408 11.95 21.8414 11.9543 21.8418C11.9694 21.8433 11.9846 21.8443 12 21.8443H12.0001C12.0155 21.8443 12.0307 21.8433 12.0458 21.8418C12.0501 21.8414 12.0544 21.8407 12.0587 21.8402C12.07 21.8388 12.081 21.837 12.092 21.8348C12.0963 21.834 12.1006 21.8332 12.1048 21.8322C12.1177 21.8292 12.1304 21.8258 12.1429 21.8218C12.1447 21.8212 12.1465 21.8208 12.1483 21.8202C12.1627 21.8154 12.1767 21.8098 12.1905 21.8037C12.1938 21.8023 12.1969 21.8006 12.2001 21.7991C12.2106 21.7942 12.2208 21.7889 12.2308 21.7832C12.2348 21.781 12.2387 21.7787 12.2425 21.7764C12.253 21.7701 12.2631 21.7634 12.273 21.7563C12.2753 21.7546 12.2778 21.7531 12.28 21.7514C12.292 21.7424 12.3035 21.7329 12.3146 21.7229C12.3173 21.7205 12.3198 21.7179 12.3224 21.7155C12.331 21.7072 12.3393 21.6988 12.3474 21.6899C12.3489 21.6882 12.3507 21.6867 12.3522 21.6849L23.8841 8.55923C24.037 8.38537 24.0408 8.11753 23.8833 7.9395ZM18.6716 3.45553L22.4925 7.78106H16.5088L18.6716 3.45553ZM17.8045 3.09328L15.6924 7.31765L12.8761 3.09328H17.8045ZM14.8744 7.78106H9.12583L12.0001 3.46964L14.8744 7.78106ZM11.1243 3.09328L8.308 7.31765L6.19581 3.09328H11.1243ZM5.32867 3.45558L7.49144 7.78111H1.5078L5.32867 3.45558ZM1.50409 8.71861H7.8963L10.9769 19.5007L1.50409 8.71861ZM13.0243 19.4995L14.6072 13.9661C14.6784 13.7172 14.5343 13.4576 14.2854 13.3865C14.0365 13.3152 13.777 13.4593 13.7058 13.7082L12.0004 19.6701L8.87134 8.71856H15.1261L14.7376 10.057C14.6654 10.3057 14.8084 10.5658 15.0571 10.6379C15.3057 10.7101 15.5658 10.5671 15.6379 10.3184L16.1023 8.71861H22.4962L13.0243 19.4995Z" fill="white"/>
</g>
<defs>
<clipPath id="clip0_33_19604">
<rect width="24" height="24" fill="white"/>
</clipPath>
</defs>
</svg>
