<svg width="24" height="24" viewBox="0 0 24 24" fill="none" xmlns="http://www.w3.org/2000/svg">
<path d="M19.5015 13.4089C19.2427 13.4089 19.0326 13.6189 19.0326 13.8777C19.0326 14.1365 19.2427 14.3466 19.5015 14.3466C19.7602 14.3466 19.9703 14.1365 19.9703 13.8777C19.9703 13.6189 19.7602 13.4089 19.5015 13.4089Z" fill="white"/>
<path d="M18.5638 9.65813C18.305 9.65813 18.0949 9.86817 18.0949 10.127C18.0949 10.3858 18.305 10.5958 18.5638 10.5958C18.8226 10.5958 19.0326 10.3858 19.0326 10.127C19.0326 9.86817 18.8226 9.65813 18.5638 9.65813Z" fill="white"/>
<path d="M18.5638 17.4409C18.305 17.4409 18.0949 17.651 18.0949 17.9098C18.0949 18.1686 18.305 18.3786 18.5638 18.3786C18.8226 18.3786 19.0326 18.1686 19.0326 17.9098C19.0326 17.651 18.8226 17.4409 18.5638 17.4409Z" fill="white"/>
<path d="M15.7507 20.2539C15.492 20.2539 15.2819 20.464 15.2819 20.7228C15.2819 20.9816 15.492 21.1916 15.7507 21.1916C16.0095 21.1916 16.2196 20.9816 16.2196 20.7228C16.2196 20.464 16.0095 20.2539 15.7507 20.2539Z" fill="white"/>
<path d="M12 21.1916C11.7412 21.1916 11.5312 21.4017 11.5312 21.6605C11.5312 21.9193 11.7412 22.1293 12 22.1293C12.2588 22.1293 12.4688 21.9193 12.4688 21.6605C12.4688 21.4017 12.2588 21.1916 12 21.1916Z" fill="white"/>
<path d="M8.24925 20.2539C7.99045 20.2539 7.78041 20.464 7.78041 20.7228C7.78041 20.9816 7.99045 21.1916 8.24925 21.1916C8.50805 21.1916 8.71809 20.9816 8.71809 20.7228C8.71809 20.464 8.50805 20.2539 8.24925 20.2539Z" fill="white"/>
<path d="M5.43624 9.65813C5.17744 9.65813 4.96739 9.86817 4.96739 10.127C4.96739 10.3858 5.17744 10.5958 5.43624 10.5958C5.69503 10.5958 5.90508 10.3858 5.90508 10.127C5.90508 9.86817 5.69503 9.65813 5.43624 9.65813Z" fill="white"/>
<path d="M5.43624 17.4409C5.17744 17.4409 4.96739 17.651 4.96739 17.9098C4.96739 18.1686 5.17744 18.3786 5.43624 18.3786C5.69503 18.3786 5.90508 18.1686 5.90508 17.9098C5.90508 17.651 5.69503 17.4409 5.43624 17.4409Z" fill="white"/>
<path d="M4.49855 13.4089C4.23975 13.4089 4.0297 13.6189 4.0297 13.8777C4.0297 14.1365 4.23975 14.3466 4.49855 14.3466C4.75734 14.3466 4.96739 14.1365 4.96739 13.8777C4.96739 13.6189 4.75734 13.4089 4.49855 13.4089Z" fill="white"/>
<path d="M21.1244 10.1734C19.934 7.23825 19.6196 5.48677 19.5387 4.68839H21.3768C21.6357 4.68839 21.8457 4.47844 21.8457 4.21955V0.468844C21.8457 0.209953 21.6357 0 21.3768 0H18.5638C17.291 0 16.2187 0.550828 15.5446 1.55114C14.295 3.40734 14.6989 6.80414 16.7794 11.9355C17.2764 13.1618 17.2764 14.8747 16.7794 16.1011C16.2596 17.3838 15.2253 18.418 13.9415 18.9385C12.7079 19.4388 11.2923 19.4388 10.0579 18.9385C8.77448 18.418 7.74023 17.3838 7.22044 16.1011C6.72342 14.8748 6.72342 13.1619 7.22044 11.9356C9.30098 6.80414 9.70491 3.40734 8.45517 1.551C7.7812 0.550828 6.70908 0 5.43623 0H2.62317C2.36423 0 2.15433 0.209953 2.15433 0.468844V4.21959C2.15433 4.47848 2.36423 4.68375 2.62317 4.68375H4.461C4.37991 5.48269 4.06505 7.23956 2.87555 10.1735C2.40038 11.3453 2.14917 12.6748 2.14917 14.0183C2.14917 15.3617 2.40033 16.691 2.87545 17.8622C3.8685 20.3134 5.84428 22.2894 8.29631 23.2835C9.46941 23.759 10.7156 24 12 24C13.2846 24 14.5306 23.7589 15.7032 23.2835C18.1553 22.2894 20.1312 20.3137 21.1244 17.8632C21.5997 16.6914 21.8508 15.3619 21.8508 14.0183C21.8508 12.6748 21.5997 11.3453 21.1244 10.1734ZM20.2554 17.511C19.3569 19.7279 17.5693 21.5151 15.351 22.4145C14.2907 22.8443 13.1633 23.0623 12 23.0623C10.8368 23.0623 9.70922 22.8443 8.64858 22.4145C6.43036 21.5151 4.64288 19.7276 3.74447 17.5099C2.87081 15.3564 2.87081 12.6803 3.74447 10.5258C5.31455 6.65339 5.42836 4.71816 5.42587 4.21725C5.42456 3.9592 5.21503 3.75075 4.95703 3.75075H3.09202V0.937688H5.43623C6.38742 0.937688 7.18341 1.34161 7.67752 2.07487C8.72494 3.6307 8.27887 6.82987 6.35152 11.5835C5.76122 13.0399 5.76122 14.997 6.35152 16.4534C6.966 17.9697 8.1885 19.1922 9.7057 19.8075C11.1641 20.3986 12.8364 20.3986 14.2939 19.8075C15.8114 19.1923 17.034 17.9698 17.6485 16.4534C18.2388 14.997 18.2388 13.0399 17.6485 11.5834C15.7212 6.82983 15.275 3.6307 16.3223 2.07502C16.8165 1.34161 17.6126 0.937688 18.5637 0.937688H20.9079V3.75075H19.0429C18.785 3.75075 18.5755 3.95902 18.574 4.21692C18.5712 4.71736 18.684 6.65128 20.2554 10.5258C21.1291 12.6801 21.1291 15.3566 20.2554 17.511Z" fill="white"/>
<path d="M18.0617 7.07658C17.7627 5.97521 17.6326 4.8436 17.6364 4.21065C17.6379 3.95175 17.4293 3.74058 17.1704 3.73899C16.9121 3.73772 16.7003 3.94613 16.6987 4.20502C16.6946 4.90158 16.8346 6.13566 17.1568 7.3223C17.2247 7.57252 17.4825 7.71975 17.7321 7.65188C17.982 7.58415 18.1296 7.32652 18.0617 7.07658Z" fill="white"/>
<path d="M6.83245 3.74095C6.83161 3.74095 6.83076 3.74095 6.82992 3.74095C6.57103 3.74231 6.3622 3.95334 6.36356 4.21228C6.36694 4.8465 6.23644 5.97867 5.93742 7.07845C5.86945 7.32825 6.01692 7.58587 6.26676 7.6538C6.51562 7.72158 6.774 7.57519 6.84216 7.32445C7.16437 6.13955 7.30486 4.90505 7.3012 4.20731C7.29989 3.94917 7.09031 3.74095 6.83245 3.74095Z" fill="white"/>
</svg>
