<svg width="24" height="24" viewBox="0 0 24 24" fill="none" xmlns="http://www.w3.org/2000/svg">
<g clip-path="url(#clip0_33_19502)">
<path d="M9.98766 4.82485C9.80484 4.64157 9.50766 4.64157 9.32484 4.82485C9.14156 5.00766 9.14156 5.30485 9.32484 5.48766C9.50766 5.67094 9.80484 5.67094 9.98766 5.48766C10.1709 5.30485 10.1709 5.00766 9.98766 4.82485Z" fill="white"/>
<path d="M15.2812 9.51562H4.03125C3.77236 9.51562 3.5625 9.72553 3.5625 9.98438V14.6719C3.5625 14.9307 3.77236 15.1406 4.03125 15.1406H15.2812C15.5401 15.1406 15.75 14.9307 15.75 14.6719V9.98438C15.75 9.72553 15.5401 9.51562 15.2812 9.51562ZM7.3125 14.2031H4.5V10.4531H7.3125V14.2031ZM11.0625 14.2031H8.25V10.4531H11.0625V14.2031ZM14.8125 14.2031H12V10.4531H14.8125V14.2031Z" fill="white"/>
<path d="M21.8438 11.3906V7.58128C22.6515 7.37259 23.25 6.63769 23.25 5.76562C23.25 4.73175 22.4089 3.89062 21.375 3.89062C20.3411 3.89062 19.5 4.73175 19.5 5.76562C19.5 6.63769 20.0985 7.37259 20.9062 7.58128V11.3906H20.3569C20.1634 10.845 19.6424 10.4531 19.0312 10.4531H18.5625V8.90625C18.5625 3.98344 14.5781 0 9.65625 0C4.7453 0 0.75 3.9953 0.75 8.90625V22.5938C0.75 23.3692 1.38084 24 2.15625 24H17.1562C17.9317 24 18.5625 23.3692 18.5625 22.5938V16.0781H19.0312C19.6423 16.0781 20.1634 15.6862 20.3569 15.1406H21.8438C22.6192 15.1406 23.25 14.5098 23.25 13.7344V12.7969C23.25 12.0215 22.6192 11.3906 21.8438 11.3906ZM17.625 22.5938C17.625 22.8522 17.4147 23.0625 17.1562 23.0625H2.15625C1.89778 23.0625 1.6875 22.8522 1.6875 22.5938V18.0938H17.625V22.5938ZM17.625 17.1562H1.6875V8.90625C1.6875 4.51228 5.26228 0.9375 9.65625 0.9375C14.0608 0.9375 17.625 4.50244 17.625 8.90625V17.1562ZM19.5 14.6719C19.5 14.9303 19.2897 15.1406 19.0312 15.1406H18.5625V11.3906H19.0312C19.2897 11.3906 19.5 11.6009 19.5 11.8594V14.6719ZM20.4375 5.76562C20.4375 5.24869 20.8581 4.82812 21.375 4.82812C21.8919 4.82812 22.3125 5.24869 22.3125 5.76562C22.3125 6.28256 21.8919 6.70312 21.375 6.70312C20.8581 6.70312 20.4375 6.28256 20.4375 5.76562ZM22.3125 13.7344C22.3125 13.9928 22.1022 14.2031 21.8438 14.2031H20.4375V12.3281H21.8438C22.1022 12.3281 22.3125 12.5384 22.3125 12.7969V13.7344Z" fill="white"/>
<path d="M13.4062 19.1719H5.90625C5.64736 19.1719 5.4375 19.3818 5.4375 19.6406V21.5156C5.4375 21.7745 5.64736 21.9844 5.90625 21.9844H13.4062C13.6651 21.9844 13.875 21.7745 13.875 21.5156V19.6406C13.875 19.3818 13.6651 19.1719 13.4062 19.1719ZM12.9375 21.0469H6.375V20.1094H12.9375V21.0469Z" fill="white"/>
<path d="M15.3948 6.87436C14.5317 4.44483 12.2256 2.8125 9.65625 2.8125C7.08694 2.8125 4.78073 4.44483 3.91767 6.87431C3.86667 7.01784 3.88861 7.17717 3.97641 7.30158C4.0643 7.42603 4.20708 7.5 4.35937 7.5C5.50795 7.5 13.6485 7.5 14.9531 7.5C15.1054 7.5 15.2483 7.42603 15.336 7.30163C15.4239 7.17722 15.4458 7.01784 15.3948 6.87436ZM13.1627 6.5625C12.7888 6.0045 12.2871 5.54203 11.6986 5.21559C11.4724 5.09002 11.1869 5.17163 11.0613 5.39813C10.9358 5.62448 11.0175 5.90981 11.2439 6.03539C11.5029 6.17911 11.7404 6.35677 11.9505 6.56255H7.36195C7.57214 6.35677 7.80956 6.17911 8.06864 6.03539C8.29505 5.90981 8.37675 5.62448 8.25117 5.39808C8.12555 5.17177 7.84027 5.08997 7.61386 5.21559C7.02534 5.54208 6.52378 6.00455 6.14977 6.5625H5.07094C5.9445 4.8563 7.71136 3.75 9.65625 3.75C11.6011 3.75 13.368 4.8563 14.2415 6.5625H13.1627Z" fill="white"/>
<path d="M5.90625 11.3906C5.64736 11.3906 5.4375 11.6005 5.4375 11.8594V12.7969C5.4375 13.0557 5.64736 13.2656 5.90625 13.2656C6.16514 13.2656 6.375 13.0557 6.375 12.7969V11.8594C6.375 11.6005 6.16514 11.3906 5.90625 11.3906Z" fill="white"/>
<path d="M9.65625 11.3906C9.39736 11.3906 9.1875 11.6005 9.1875 11.8594V12.7969C9.1875 13.0557 9.39736 13.2656 9.65625 13.2656C9.91514 13.2656 10.125 13.0557 10.125 12.7969V11.8594C10.125 11.6005 9.91514 11.3906 9.65625 11.3906Z" fill="white"/>
<path d="M13.4062 11.3906C13.1474 11.3906 12.9375 11.6005 12.9375 11.8594V12.7969C12.9375 13.0557 13.1474 13.2656 13.4062 13.2656C13.6651 13.2656 13.875 13.0557 13.875 12.7969V11.8594C13.875 11.6005 13.6651 11.3906 13.4062 11.3906Z" fill="white"/>
</g>
<defs>
<clipPath id="clip0_33_19502">
<rect width="24" height="24" fill="white"/>
</clipPath>
</defs>
</svg>
